Coordinates
version=1
nRows=10
nColumns=40
inDegrees=yes

Units are S.I. units (second, meters, Newtons, ...)
Angles are in degrees.

endheader
time	pelvis_tilt	pelvis_list	pelvis_rotation	pelvis_tx	pelvis_ty	pelvis_tz	hip_flexion_r	hip_adduction_r	hip_rotation_r	knee_angle_r	knee_angle_r_beta	ankle_angle_r	subtalar_angle_r	mtp_angle_r	hip_flexion_l	hip_adduction_l	hip_rotation_l	knee_angle_l	knee_angle_l_beta	ankle_angle_l	subtalar_angle_l	mtp_angle_l	lumbar_extension	lumbar_bending	lumbar_rotation	arm_flex_r	arm_add_r	arm_rot_r	elbow_flex_r	pro_sup_r	wrist_flex_r	wrist_dev_r	arm_flex_l	arm_add_l	arm_rot_l	elbow_flex_l	pro_sup_l	wrist_flex_l	wrist_dev_l
      2.19000005	    -17.14564396	      3.69998869	     10.57559475	     -2.64931552	      0.97939739	      0.31292365	     19.85269696	     -2.98189332	    -10.55918499	     99.66529308	     99.66529308	    -20.09095683	      0.00000000	      0.00000000	     39.07999782	      1.32360829	     -6.45414385	     39.91861553	     39.91861553	      2.52091602	      0.00000000	      0.00000000	    -30.12602818	     -7.07238099	     -4.35382464	     -1.56570094	    -11.75331714	    -14.87019548	     73.82214020	     32.17284337	      0.00000000	      0.00000000	      6.44648722	    -24.63726064	      1.53610157	     92.55953666	     42.10464024	      0.00000000	      0.00000000
      2.19500005	    -17.00765852	      3.57891530	     12.00428028	     -2.62044663	      0.97653026	      0.31098739	     22.18292673	     -3.60132675	    -11.35571867	    102.63730154	    102.63730154	    -18.15507997	      0.00000000	      0.00000000	     37.04522484	      1.92799542	     -4.73614999	     40.06867190	     40.06867190	      4.97590703	      0.00000000	      0.00000000	    -29.97391293	     -6.37514198	     -5.70942238	     -4.39778625	    -11.88611616	    -14.11538376	     71.18396163	     32.03537212	      0.00000000	      0.00000000	     10.62089273	    -23.79309369	      3.10429092	     93.57582423	     42.20543707	      0.00000000	      0.00000000
      2.20000005	    -16.84510732	      3.39423683	     13.43812011	     -2.59169357	      0.97357157	      0.30899783	     24.54673951	     -4.24327918	    -12.05973637	    105.36782453	    105.36782453	    -16.13938221	      0.00000000	      0.00000000	     34.94974842	      2.39401439	     -2.99846589	     40.12231980	     40.12231980	      7.49953621	      0.00000000	      0.00000000	    -29.80668718	     -5.58528886	     -7.16836696	     -7.15616105	    -12.07072401	    -13.47369190	     68.17724325	     40.86108205	      0.00000000	      0.00000000	     14.74683918	    -22.91641994	      4.45773659	     94.52275415	     43.51027262	      0.00000000	      0.00000000
      2.20500005	    -16.66827594	      3.11895785	     14.88593965	     -2.56310129	      0.97054560	      0.30694057	     26.96396614	     -4.89156244	    -12.69651611	    107.83736205	    107.83736205	    -14.06894090	      0.00000000	      0.00000000	     32.83373672	      2.68285020	     -1.26935822	     40.08569191	     40.08569191	      9.98317964	      0.00000000	      0.00000000	    -29.61326710	     -4.67255063	     -8.68695928	     -9.89550812	    -12.31632410	    -12.99309543	     65.43513822	     51.96315994	      0.00000000	      0.00000000	     18.87255085	    -22.02533617	      5.66535623	     95.47679464	     44.58401687	      0.00000000	      0.00000000
      2.21000005	    -16.49116889	      2.73523633	     16.35105865	     -2.53470482	      0.96746815	      0.30480932	     29.45682063	     -5.54296019	    -13.28435118	    110.02756156	    110.02756156	    -11.97543816	      0.00000000	      0.00000000	     30.73692563	      2.76414616	      0.42231810	     39.96251874	     39.96251874	     12.33720040	      0.00000000	      0.00000000	    -29.37451989	     -3.62017089	    -10.23597922	    -12.69110797	    -12.64734357	    -12.44989425	     63.42958757	     59.59585288	      0.00000000	      0.00000000	     23.02412269	    -21.13488532	      6.77705471	     96.50606384	     44.15384967	      0.00000000	      0.00000000
      2.21500005	    -16.33117417	      2.23603807	     17.82869310	     -2.50652180	      0.96434637	      0.30261123	     32.04821118	     -6.20481484	    -13.82857043	    111.92270811	    111.92270811	     -9.89659201	      0.00000000	      0.00000000	     28.69575359	      2.61990789	      2.04980186	     39.74834732	     39.74834732	     14.49070379	      0.00000000	      0.00000000	    -29.06961926	     -2.42659115	    -11.78792625	    -15.58531486	    -13.06958215	    -11.77550800	     62.14751336	     63.43108158	      0.00000000	      0.00000000	     27.22636768	    -20.25232106	      7.76291856	     97.46345989	     44.10793855	      0.00000000	      0.00000000
      2.22000005	    -16.21102534	      1.62475415	     19.30301709	     -2.47855001	      0.96117339	      0.30037294	     34.76366371	     -6.89004402	    -14.31670143	    113.51143355	    113.51143355	     -7.86857423	      0.00000000	      0.00000000	     26.74572406	      2.24669385	      3.58828957	     39.43271197	     39.43271197	     16.39052572	      0.00000000	      0.00000000	    -28.68367476	     -1.11436121	    -13.26821255	    -18.46135752	    -13.48790417	    -12.06092682	     60.72941059	     77.47612457	      0.00000000	      0.00000000	     31.52462207	    -19.35804505	      8.71291233	     98.41833698	     43.09436109	      0.00000000	      0.00000000
      2.22500005	    -16.15888715	      0.91502453	     20.74412336	     -2.45076406	      0.95792918	      0.29814374	     37.63184004	     -7.61084769	    -14.71485304	    114.78792251	    114.78792251	     -5.92443694	      0.00000000	      0.00000000	     24.92022972	      1.65772118	      5.01416711	     39.00306583	     39.00306583	     17.99418595	      0.00000000	      0.00000000	    -28.16868804	      0.28607308	    -14.71805834	    -21.60147748	    -14.02511391	    -11.45654900	     60.55254326	     77.54223913	      0.00000000	      0.00000000	     35.85069416	    -18.49638469	      9.49884757	     99.24904741	     43.13707239	      0.00000000	      0.00000000
      2.23000005	    -16.20648018	      0.12696441	     22.11163852	     -2.42311964	      0.95458578	      0.29598205	     40.68226674	     -8.37368581	    -14.97430113	    115.75036900	    115.75036900	     -4.09453959	      0.00000000	      0.00000000	     23.24762775	      0.88331600	      6.31133997	     38.44874311	     38.44874311	     19.27045431	      0.00000000	      0.00000000	    -27.50781717	      1.71965251	    -16.05709536	    -24.83944276	    -14.54454158	    -11.33969707	     60.61863939	     80.48555765	      0.00000000	      0.00000000	     40.21444489	    -17.65231287	     10.24777267	    100.20988639	     40.59660653	      0.00000000	      0.00000000
      2.23500005	    -16.38309723	     -0.71757879	     23.35595203	     -2.39555298	      0.95111934	      0.29394972	     43.93912649	     -9.16942665	    -15.03907579	    116.39746359	    116.39746359	     -2.40514634	      0.00000000	      0.00000000	     21.74494265	     -0.03679954	      7.46880083	     37.76438664	     37.76438664	     20.19355676	      0.00000000	      0.00000000	    -26.67310423	      3.13508187	    -17.27088675	    -28.25206692	    -15.03861453	    -11.28443248	     61.18075003	     80.50703951	      0.00000000	      0.00000000	     44.59092322	    -16.83563463	     10.82677896	    100.94247422	     40.62220661	      0.00000000	      0.00000000
